<?xml version="1.0" standalone="no"?>
<!DOCTYPE svg PUBLIC "-//W3C//DTD SVG 20010904//EN"
 "http://www.w3.org/TR/2001/REC-SVG-20010904/DTD/svg10.dtd">
<svg version="1.0" xmlns="http://www.w3.org/2000/svg"
 width="120pt" height="120pt" viewBox="0 0 1024.000000 1024.000000"
 preserveAspectRatio="xMidYMid meet">

<g transform="translate(0.000000,1024.000000) scale(0.100000,-0.100000)"
fill="#ffffff" stroke="none">
<path d="M3655 9199 c-198 -63 -239 -82 -330 -149 -62 -45 -147 -137 -180
-193 -30 -53 -62 -179 -70 -277 -19 -243 -16 -234 -125 -520 -156 -411 -170
-469 -142 -596 6 -27 16 -89 22 -138 11 -87 75 -306 90 -306 9 0 21 30 46 110
22 68 67 116 118 126 21 3 70 1 109 -6 40 -7 79 -12 87 -12 8 0 33 -6 55 -14
43 -14 147 -31 285 -45 132 -14 205 -24 205 -29 0 -2 25 -6 85 -14 30 -4 69
-9 85 -11 17 -3 48 -7 70 -9 143 -18 335 -74 434 -128 31 -17 106 -56 166 -86
61 -30 117 -58 125 -63 8 -5 26 -14 40 -20 14 -6 34 -16 45 -22 63 -33 155
-76 190 -88 22 -7 56 -23 75 -35 20 -12 50 -25 68 -29 17 -3 32 -10 32 -15 0
-8 147 -70 166 -70 30 0 209 -81 309 -141 33 -19 76 -41 95 -48 73 -28 90 -36
90 -44 0 -4 6 -7 13 -5 6 1 42 -12 79 -30 37 -17 74 -32 82 -32 8 0 18 -4 21
-10 3 -5 19 -10 36 -10 16 0 29 -4 29 -9 0 -5 15 -11 33 -14 17 -4 58 -10 89
-16 87 -14 130 -32 298 -122 25 -13 47 -27 50 -30 3 -3 17 -12 31 -20 15 -8
49 -26 76 -41 64 -34 146 -113 165 -158 68 -155 93 -267 85 -373 -3 -40 -8
-81 -11 -92 -2 -11 -5 -23 -5 -27 -1 -4 -7 -13 -13 -20 -7 -7 -22 -31 -34 -53
-37 -70 -60 -109 -103 -169 l-41 -59 5 -79 c3 -44 12 -95 20 -114 8 -19 13
-36 12 -38 -1 -2 7 -13 17 -25 38 -42 163 -22 314 50 89 43 149 95 264 229
138 162 140 165 238 385 13 27 31 75 41 106 10 31 59 135 108 232 49 96 94
192 100 213 18 63 26 361 11 440 -26 145 -70 306 -108 396 -46 111 -56 138
-74 202 -15 57 -31 67 -58 35 -19 -23 -20 -70 -3 -131 3 -12 -1 -18 -13 -18
-12 0 -14 -3 -6 -12 12 -15 6 -214 -8 -266 -5 -19 -7 -39 -4 -45 2 -7 -4 -35
-15 -63 -10 -29 -15 -57 -11 -64 4 -7 3 -30 -2 -52 -5 -23 -8 -48 -7 -57 5
-59 -2 -93 -21 -98 -15 -4 -19 -11 -14 -25 3 -12 -1 -27 -11 -38 -10 -11 -15
-26 -12 -33 3 -8 -1 -27 -9 -42 -8 -15 -14 -40 -14 -56 0 -16 -4 -29 -10 -29
-5 0 -10 -9 -10 -20 0 -11 -4 -20 -10 -20 -5 0 -10 -11 -10 -25 0 -14 -2 -25
-5 -25 -19 0 -62 42 -101 96 -24 34 -51 65 -59 68 -8 3 -15 10 -15 16 0 5 -14
22 -30 37 -49 46 -53 50 -100 105 -80 94 -135 142 -236 208 -54 36 -101 67
-104 70 -3 4 -45 31 -95 61 -49 30 -91 57 -93 62 -2 4 -7 7 -11 7 -5 0 -69 34
-142 76 -201 114 -375 202 -624 315 -286 130 -893 333 -1015 340 -19 2 -39 5
-45 9 -5 4 -39 14 -75 24 -36 10 -82 22 -102 28 -20 6 -43 8 -50 5 -8 -2 -22
1 -33 9 -13 10 -22 11 -31 3 -9 -7 -26 -6 -56 2 -24 7 -51 11 -61 10 -9 -1
-20 5 -23 13 -3 9 -10 16 -16 16 -5 0 -6 -4 -3 -10 4 -6 -14 -9 -49 -7 -37 1
-56 6 -56 15 0 6 -8 12 -17 11 -11 0 -13 -3 -5 -6 29 -11 9 -20 -25 -11 -21 6
-69 11 -106 10 -56 0 -73 4 -89 20 -18 18 -27 19 -87 12 -82 -9 -172 -5 -189
9 -10 8 -15 8 -20 0 -8 -12 -90 -12 -110 1 -7 4 -16 5 -20 1 -3 -3 0 -10 8
-15 12 -8 10 -10 -9 -10 -16 0 -21 4 -18 14 4 9 -3 16 -19 19 -19 3 -23 1 -19
-12 4 -14 -2 -16 -42 -12 -29 2 -53 10 -60 20 -11 14 -12 14 -13 -4 -1 -19 -1
-19 -14 -2 -13 17 -15 17 -24 1 -5 -10 -25 -18 -46 -20 -29 -2 -35 0 -27 9 8
10 -2 13 -45 13 -30 0 -54 -5 -54 -11 0 -5 -5 -2 -11 8 -5 9 -22 17 -36 17
-15 0 -24 3 -20 6 3 4 0 22 -8 41 -8 19 -13 38 -11 42 3 4 1 42 -3 84 -4 43
-5 80 -2 83 4 3 7 33 8 67 3 103 37 301 55 322 4 5 8 18 8 28 0 18 8 40 51
135 10 23 19 51 19 62 0 12 7 20 16 20 11 0 14 5 10 17 -4 9 -3 19 1 22 5 3
19 38 32 76 12 39 26 79 31 90 34 88 45 112 56 125 7 9 28 45 47 80 72 141
111 173 226 185 39 4 57 2 62 -7 6 -8 9 -9 9 -2 0 8 23 10 78 5 132 -10 482
-5 556 9 65 12 68 13 45 26 -13 7 -34 13 -46 14 -13 0 -67 11 -120 25 -171 45
-526 77 -598 54z m-378 -1645 c-3 -3 -12 -4 -19 -1 -8 3 -5 6 6 6 11 1 17 -2
13 -5z"/>
<path d="M4918 9153 c-87 -4 -114 -17 -60 -29 81 -17 129 -36 317 -125 44 -20
105 -49 135 -63 30 -14 88 -43 129 -66 41 -22 117 -63 170 -92 148 -79 434
-237 451 -248 8 -6 24 -15 35 -20 11 -6 43 -24 70 -40 28 -17 70 -41 95 -53
25 -12 47 -25 50 -28 5 -6 98 -60 210 -122 30 -17 69 -39 85 -49 17 -10 39
-22 50 -27 11 -5 57 -32 103 -60 46 -28 85 -51 88 -51 11 0 183 -108 199 -126
6 -5 63 -56 127 -112 64 -57 156 -141 205 -188 48 -47 112 -109 142 -137 l53
-52 -5 47 c-7 48 -45 138 -59 138 -4 0 -8 4 -8 9 0 20 -228 350 -275 397 -45
46 -183 163 -281 239 -21 17 -64 53 -94 82 -30 28 -68 62 -85 75 -16 12 -31
26 -33 30 -2 4 -45 37 -95 75 -51 37 -94 70 -97 74 -22 26 -270 175 -270 162
0 -5 -4 -3 -8 3 -11 19 -383 203 -422 210 -6 1 -70 28 -120 51 -19 9 -50 16
-70 15 -26 -1 -31 1 -20 8 12 8 12 10 -5 11 -27 2 -37 4 -60 13 -54 21 -137
41 -195 46 -46 4 -378 6 -452 3z"/>
<path d="M5048 8893 c7 -3 16 -2 19 1 4 3 -2 6 -13 5 -11 0 -14 -3 -6 -6z"/>
<path d="M3760 8070 c0 -5 5 -10 11 -10 5 0 7 5 4 10 -3 6 -8 10 -11 10 -2 0
-4 -4 -4 -10z"/>
<path d="M3718 8063 c6 -2 18 -2 25 0 6 3 1 5 -13 5 -14 0 -19 -2 -12 -5z"/>
<path d="M3813 8043 c9 -2 23 -2 30 0 6 3 -1 5 -18 5 -16 0 -22 -2 -12 -5z"/>
<path d="M4320 7950 c0 -5 5 -10 10 -10 6 0 10 5 10 10 0 6 -4 10 -10 10 -5 0
-10 -4 -10 -10z"/>
<path d="M3840 7940 c0 -5 7 -10 15 -10 8 0 15 5 15 10 0 6 -7 10 -15 10 -8 0
-15 -4 -15 -10z"/>
<path d="M4545 7800 c-3 -5 1 -10 10 -10 9 0 13 5 10 10 -3 6 -8 10 -10 10 -2
0 -7 -4 -10 -10z"/>
<path d="M4948 7683 c7 -3 16 -2 19 1 4 3 -2 6 -13 5 -11 0 -14 -3 -6 -6z"/>
<path d="M4378 7643 c7 -3 16 -2 19 1 4 3 -2 6 -13 5 -11 0 -14 -3 -6 -6z"/>
<path d="M3910 7600 c-9 -6 -10 -10 -3 -10 6 0 15 5 18 10 8 12 4 12 -15 0z"/>
<path d="M3840 7570 c0 -5 5 -10 10 -10 6 0 10 5 10 10 0 6 -4 10 -10 10 -5 0
-10 -4 -10 -10z"/>
<path d="M5645 7530 c4 -6 11 -8 16 -5 14 9 11 15 -7 15 -8 0 -12 -5 -9 -10z"/>
<path d="M5848 7193 c7 -3 16 -2 19 1 4 3 -2 6 -13 5 -11 0 -14 -3 -6 -6z"/>
<path d="M7031 7174 c0 -11 3 -14 6 -6 3 7 2 16 -1 19 -3 4 -6 -2 -5 -13z"/>
<path d="M5928 7153 c7 -3 16 -2 19 1 4 3 -2 6 -13 5 -11 0 -14 -3 -6 -6z"/>
<path d="M7570 6410 c0 -5 5 -10 11 -10 5 0 7 5 4 10 -3 6 -8 10 -11 10 -2 0
-4 -4 -4 -10z"/>
<path d="M7425 6351 c-3 -6 3 -9 14 -8 11 0 17 5 15 9 -7 11 -22 10 -29 -1z"/>
<path d="M7465 6290 c3 -5 13 -10 21 -10 8 0 12 5 9 10 -3 6 -13 10 -21 10 -8
0 -12 -4 -9 -10z"/>
<path d="M7320 6240 c8 -5 22 -9 30 -9 10 0 8 3 -5 9 -27 12 -43 12 -25 0z"/>
<path d="M7287 6193 c-4 -3 -7 -11 -7 -17 0 -6 4 -4 10 4 8 12 10 12 16 -3 3
-9 10 -14 16 -11 5 3 4 11 -3 20 -13 15 -22 18 -32 7z"/>
<path d="M7440 5990 c0 -5 5 -10 10 -10 6 0 10 5 10 10 0 6 -4 10 -10 10 -5 0
-10 -4 -10 -10z"/>
<path d="M7330 3690 c0 -5 -10 -10 -23 -10 -38 0 -118 -31 -110 -43 4 -6 -2
-8 -16 -4 -13 3 -39 -4 -65 -18 -24 -13 -54 -25 -67 -27 -20 -3 -27 -16 -49
-95 -15 -50 -31 -98 -37 -105 -6 -7 -21 -38 -34 -68 -30 -70 -117 -224 -177
-315 -89 -133 -287 -314 -477 -436 -109 -70 -309 -145 -520 -196 -11 -2 -29
-6 -40 -8 -11 -1 -56 -9 -100 -16 -100 -17 -496 -17 -613 -1 -142 20 -377 95
-390 125 -2 4 -8 7 -14 7 -12 0 -77 48 -127 94 -28 27 -107 132 -109 146 -2
17 -22 59 -31 64 -10 7 -187 -21 -211 -34 -8 -4 -34 -10 -57 -14 -55 -8 -201
-55 -209 -67 -3 -5 -24 -9 -46 -9 -55 0 -104 -18 -118 -44 -6 -12 -36 -39 -66
-61 -91 -67 -107 -82 -99 -95 5 -9 1 -10 -15 -5 -16 5 -21 4 -18 -6 3 -8 13
-13 22 -13 9 1 16 -2 16 -7 0 -5 -5 -9 -11 -9 -6 0 -8 -7 -5 -15 3 -9 -1 -18
-9 -21 -17 -7 -21 -54 -5 -54 6 0 10 -7 10 -16 0 -11 6 -14 20 -9 24 8 24 5 6
-40 -12 -29 -12 -33 -1 -28 21 7 16 -80 -5 -89 -10 -4 -6 -7 13 -7 15 -1 27
-5 27 -10 0 -5 10 -12 23 -16 21 -6 20 -7 -10 -21 -44 -19 -41 -23 7 -17 36 5
40 4 33 -13 -6 -17 -5 -17 10 -5 15 12 17 11 17 -3 0 -12 5 -16 19 -11 11 3
25 -1 34 -10 17 -17 31 -20 22 -5 -3 6 1 10 9 10 18 0 21 -16 6 -25 -15 -9
-12 -31 6 -50 9 -8 13 -22 11 -30 -4 -9 5 -19 24 -27 20 -9 29 -20 29 -36 0
-12 7 -25 15 -28 8 -4 12 -10 9 -15 -3 -5 2 -9 10 -9 9 0 16 -5 16 -11 0 -18
40 -48 56 -42 9 3 14 -2 14 -15 0 -21 18 -32 53 -32 20 -1 21 -2 5 -14 -24
-18 -23 -25 4 -18 17 4 20 2 15 -12 -6 -15 -2 -17 25 -14 20 2 33 -2 36 -11 3
-9 -1 -11 -17 -6 -12 4 -21 2 -21 -4 0 -6 3 -11 8 -12 4 0 15 -2 25 -4 10 -2
17 3 17 13 0 12 4 11 16 -7 12 -17 14 -25 5 -30 -16 -11 34 -32 56 -24 10 4
14 2 10 -4 -7 -11 18 -37 52 -57 10 -6 35 -24 55 -40 26 -20 52 -30 86 -34 28
-2 50 -8 50 -11 0 -4 9 -7 20 -7 13 0 19 5 16 13 -6 14 2 15 84 13 59 -2 85
-15 60 -30 -11 -7 -3 -10 28 -11 72 -2 87 -9 42 -19 -34 -7 -34 -7 13 -9 40
-1 47 -4 45 -18 -2 -14 3 -17 29 -15 17 2 34 -1 37 -6 3 -6 15 -8 26 -5 11 3
35 -2 54 -11 45 -21 76 -21 76 2 1 15 2 15 16 -3 15 -20 15 -20 30 0 9 12 18
16 22 10 7 -11 37 -12 62 -2 45 17 70 17 70 1 0 -10 -5 -14 -16 -10 -8 3 -12
2 -9 -4 3 -6 13 -10 21 -10 8 0 17 -6 20 -13 6 -16 72 -17 78 -1 5 14 46 7 46
-8 0 -5 9 -7 19 -3 13 4 20 1 23 -11 3 -14 6 -13 22 5 19 21 19 21 -10 21 -22
0 -26 3 -14 10 25 16 40 11 52 -16 10 -21 9 -27 -3 -35 -8 -5 -9 -9 -2 -9 6 0
18 6 25 13 19 18 68 19 61 1 -3 -9 2 -14 17 -14 14 0 20 -5 17 -12 -3 -9 7
-13 32 -12 50 1 76 -13 60 -32 -13 -16 -2 -19 20 -5 7 5 10 14 7 20 -4 6 -1
11 8 11 8 0 18 -5 21 -11 5 -7 12 -6 23 4 10 8 27 18 40 21 12 4 22 12 22 17
0 5 -10 14 -22 19 -18 7 -14 8 16 3 30 -4 42 -2 51 11 7 9 28 18 47 20 19 2
40 6 47 10 6 4 11 2 11 -3 0 -17 30 -13 36 4 4 8 15 15 25 15 10 0 19 5 19 10
0 6 5 10 12 10 6 0 29 18 49 40 21 22 45 40 54 40 9 0 19 9 22 21 5 19 11 20
64 16 50 -5 57 -3 52 10 -5 12 -2 15 10 10 11 -4 17 -1 17 8 0 8 9 15 19 15
10 0 33 14 51 30 18 17 36 30 41 30 5 0 9 4 9 8 0 5 18 21 41 38 23 16 49 36
58 44 9 8 44 35 76 59 33 25 96 73 140 108 102 81 87 70 180 136 44 32 100 73
125 92 25 19 54 39 65 44 38 18 75 48 68 54 -3 4 -1 8 5 8 7 1 16 2 21 3 5 0
25 15 44 31 37 33 74 57 125 82 36 19 40 29 15 36 -16 4 28 11 49 8 4 0 5 6 2
14 -5 11 0 14 17 12 24 -4 62 21 53 35 -3 4 2 11 10 14 9 3 16 13 16 21 0 9 6
12 19 8 15 -5 18 -1 13 21 -3 19 -1 25 7 20 6 -4 11 -1 11 8 0 9 6 16 14 16 8
0 24 12 36 28 12 15 25 27 28 27 4 0 25 11 47 24 22 14 63 37 90 51 78 41 115
64 115 73 0 4 6 7 14 7 8 0 16 7 20 15 3 8 13 15 22 15 10 0 14 5 10 15 -3 8
-1 15 5 15 6 0 9 7 5 15 -3 9 0 15 9 15 8 0 15 7 15 16 0 8 -4 12 -10 9 -5 -3
-10 1 -10 9 0 10 6 13 18 9 14 -5 13 -3 -3 10 -11 9 -15 17 -8 17 6 0 14 14
18 30 4 19 13 30 23 30 15 0 15 2 2 10 -12 8 -11 10 7 10 13 0 22 3 22 8 -3
20 2 25 12 12 9 -13 10 -12 5 2 -3 11 3 26 16 37 15 14 19 27 14 45 -3 14 -2
28 4 31 5 3 10 13 10 21 0 8 -4 12 -10 9 -5 -3 -10 -1 -10 4 0 6 4 11 10 11 5
0 7 6 4 14 -3 8 2 26 11 40 17 25 17 26 -11 36 -59 21 -61 23 -41 27 21 5 23
23 3 23 -8 0 -18 5 -21 10 -4 6 -3 10 2 9 4 -1 17 -1 28 0 l20 2 -20 9 c-11 6
-58 37 -105 71 -75 54 -370 251 -472 315 -38 24 -118 34 -118 14z m735 -500
c-3 -5 -15 -10 -26 -10 -10 0 -19 5 -19 10 0 6 12 10 26 10 14 0 23 -4 19 -10z
m-38 -102 c-3 -8 -6 -5 -6 6 -1 11 2 17 5 13 3 -3 4 -12 1 -19z m6 -43 c4 -8
2 -17 -3 -20 -6 -4 -10 3 -10 14 0 25 6 27 13 6z m-813 -795 c0 -5 -5 -10 -11
-10 -5 0 -7 5 -4 10 3 6 8 10 11 10 2 0 4 -4 4 -10z m-3557 -147 c-7 -2 -19
-2 -25 0 -7 3 -2 5 12 5 14 0 19 -2 13 -5z m252 -293 c-3 -5 -11 -10 -16 -10
-6 0 -7 5 -4 10 3 6 11 10 16 10 6 0 7 -4 4 -10z m2402 -216 c-3 -3 -12 -4
-19 -1 -8 3 -5 6 6 6 11 1 17 -2 13 -5z m-174 -111 c-7 -2 -19 -2 -25 0 -7 3
-2 5 12 5 14 0 19 -2 13 -5z m-928 -153 c3 -5 -1 -10 -10 -10 -9 0 -13 5 -10
10 3 6 8 10 10 10 2 0 7 -4 10 -10z m220 -30 c3 -5 2 -10 -4 -10 -5 0 -13 5
-16 10 -3 6 -2 10 4 10 5 0 13 -4 16 -10z"/>
<path d="M3508 2273 c7 -3 16 -2 19 1 4 3 -2 6 -13 5 -11 0 -14 -3 -6 -6z"/>
<path d="M3590 2059 c0 -5 5 -7 10 -4 6 3 10 8 10 11 0 2 -4 4 -10 4 -5 0 -10
-5 -10 -11z"/>
<path d="M4548 1433 c7 -3 16 -2 19 1 4 3 -2 6 -13 5 -11 0 -14 -3 -6 -6z"/>
<path d="M6075 1409 c-11 -17 1 -21 15 -4 8 9 8 15 2 15 -6 0 -14 -5 -17 -11z"/>
</g>
</svg>
